<svg width="12" height="12" viewBox="0 0 12 12" fill="none" xmlns="http://www.w3.org/2000/svg">
<path d="M9.6 5.292C9.44087 5.292 9.28826 5.35521 9.17574 5.46774C9.06321 5.58026 9 5.73287 9 5.892V10.2C9 10.3591 8.93679 10.5117 8.82426 10.6243C8.71174 10.7368 8.55913 10.8 8.4 10.8H1.8C1.64087 10.8 1.48826 10.7368 1.37574 10.6243C1.26321 10.5117 1.2 10.3591 1.2 10.2V3.6C1.2 3.44087 1.26321 3.28826 1.37574 3.17574C1.48826 3.06321 1.64087 3 1.8 3H6.108C6.26713 3 6.41974 2.93679 6.53226 2.82426C6.64479 2.71174 6.708 2.55913 6.708 2.4C6.708 2.24087 6.64479 2.08826 6.53226 1.97574C6.41974 1.86321 6.26713 1.8 6.108 1.8H1.8C1.32261 1.8 0.864773 1.98964 0.527208 2.32721C0.189642 2.66477 0 3.12261 0 3.6V10.2C0 10.6774 0.189642 11.1352 0.527208 11.4728C0.864773 11.8104 1.32261 12 1.8 12H8.4C8.87739 12 9.33523 11.8104 9.67279 11.4728C10.0104 11.1352 10.2 10.6774 10.2 10.2V5.892C10.2 5.73287 10.1368 5.58026 10.0243 5.46774C9.91174 5.35521 9.75913 5.292 9.6 5.292ZM11.952 0.372C11.8911 0.22539 11.7746 0.108885 11.628 0.048C11.5559 0.0172554 11.4784 0.000947992 11.4 0H7.8C7.64087 0 7.48826 0.0632141 7.37574 0.175736C7.26321 0.288258 7.2 0.44087 7.2 0.6C7.2 0.75913 7.26321 0.911742 7.37574 1.02426C7.48826 1.13679 7.64087 1.2 7.8 1.2H9.954L3.774 7.374C3.71776 7.42978 3.67313 7.49614 3.64267 7.56925C3.6122 7.64237 3.59652 7.72079 3.59652 7.8C3.59652 7.87921 3.6122 7.95763 3.64267 8.03075C3.67313 8.10386 3.71776 8.17022 3.774 8.226C3.82978 8.28224 3.89614 8.32687 3.96925 8.35734C4.04237 8.3878 4.12079 8.40348 4.2 8.40348C4.27921 8.40348 4.35763 8.3878 4.43075 8.35734C4.50386 8.32687 4.57022 8.28224 4.626 8.226L10.8 2.046V4.2C10.8 4.35913 10.8632 4.51174 10.9757 4.62426C11.0883 4.73679 11.2409 4.8 11.4 4.8C11.5591 4.8 11.7117 4.73679 11.8243 4.62426C11.9368 4.51174 12 4.35913 12 4.2V0.6C11.9991 0.521594 11.9827 0.444133 11.952 0.372Z" fill="white"/>
</svg>
