<svg width="36" height="36" viewBox="0 0 36 36" fill="none" xmlns="http://www.w3.org/2000/svg">
<path d="M33 8.70001C31.8725 9.18915 30.6801 9.5125 29.46 9.66001C30.7473 8.89099 31.7119 7.68118 32.175 6.25501C30.9653 6.9751 29.6411 7.48245 28.26 7.75501C27.3368 6.75387 26.1075 6.08745 24.7647 5.86029C23.422 5.63312 22.0418 5.85805 20.8407 6.49979C19.6396 7.14154 18.6854 8.16381 18.1279 9.40626C17.5703 10.6487 17.4409 12.0411 17.76 13.365C15.3141 13.2413 12.9217 12.6044 10.738 11.4958C8.5543 10.3872 6.62827 8.83155 5.085 6.93001C4.54371 7.87526 4.25928 8.94574 4.26 10.035C4.25808 11.0466 4.50633 12.0429 4.98263 12.9354C5.45894 13.8278 6.14853 14.5886 6.99 15.15C6.01197 15.1234 5.05483 14.861 4.2 14.385V14.46C4.20733 15.8773 4.70399 17.2486 5.60597 18.342C6.50795 19.4353 7.75988 20.1835 9.15 20.46C8.61488 20.6229 8.05931 20.7087 7.5 20.715C7.11284 20.7105 6.72663 20.6754 6.345 20.61C6.74086 21.8292 7.50693 22.8947 8.53661 23.6582C9.56629 24.4218 10.8084 24.8453 12.09 24.87C9.9258 26.5729 7.25383 27.5023 4.5 27.51C3.9986 27.5117 3.4976 27.4816 3 27.42C5.81164 29.2354 9.08822 30.1991 12.435 30.195C14.7445 30.219 17.0357 29.7825 19.1747 28.9111C21.3136 28.0397 23.2575 26.7508 24.8928 25.1198C26.5281 23.4887 27.8219 21.5481 28.6988 19.4114C29.5757 17.2746 30.0181 14.9846 30 12.675C30 12.42 30 12.15 30 11.88C31.177 11.0022 32.1922 9.92615 33 8.70001Z" fill="#B1C0FE"/>
</svg>
