<svg width="36" height="36" viewBox="0 0 36 36" fill="none" xmlns="http://www.w3.org/2000/svg">
<path d="M18 3.37006C14.4382 3.3702 10.9927 4.63773 8.27993 6.94583C5.56718 9.25393 3.76423 12.452 3.19368 15.9678C2.62313 19.4836 3.32221 23.0877 5.16583 26.1352C7.00945 29.1827 9.87731 31.4748 13.2563 32.6013C14.0063 32.7326 14.2875 32.2826 14.2875 31.8888C14.2875 31.5326 14.2687 30.3513 14.2687 29.0951C10.5 29.7888 9.52498 28.1763 9.22498 27.3326C8.89209 26.512 8.36439 25.7848 7.68748 25.2138C7.16248 24.9326 6.41248 24.2388 7.66872 24.2201C8.1484 24.2721 8.60846 24.4391 9.00993 24.7067C9.41139 24.9743 9.74243 25.3348 9.97498 25.7575C10.1801 26.1261 10.456 26.4505 10.7868 26.7123C11.1175 26.974 11.4967 27.1679 11.9025 27.2829C12.3084 27.3979 12.7329 27.4316 13.1518 27.3822C13.5707 27.3328 13.9757 27.2012 14.3437 26.995C14.4086 26.2325 14.7485 25.5195 15.3 24.9888C11.9625 24.6138 8.47498 23.32 8.47498 17.5826C8.4539 16.0918 9.00401 14.6495 10.0125 13.5514C9.5539 12.2557 9.60756 10.8338 10.1625 9.57635C10.1625 9.57635 11.4187 9.18259 14.2875 11.1139C16.7419 10.4388 19.333 10.4388 21.7875 11.1139C24.6562 9.16385 25.9125 9.57635 25.9125 9.57635C26.4675 10.8338 26.5211 12.2557 26.0625 13.5514C27.074 14.6476 27.6246 16.0912 27.6 17.5826C27.6 23.3388 24.0937 24.6138 20.7562 24.9888C21.1142 25.3517 21.3899 25.7873 21.5646 26.2661C21.7393 26.7449 21.8089 27.2557 21.7687 27.7639C21.7687 29.7701 21.75 31.3826 21.75 31.8889C21.75 32.2826 22.0312 32.7514 22.7812 32.6014C26.1542 31.4657 29.0138 29.1682 30.8496 26.1191C32.6854 23.07 33.3778 19.4678 32.8033 15.9554C32.2288 12.443 30.4247 9.24911 27.7132 6.94382C25.0016 4.63853 21.559 3.37191 18 3.37006Z" fill="#B1C0FE"/>
</svg>
