<svg width="33" height="32" viewBox="0 0 33 32" fill="none" xmlns="http://www.w3.org/2000/svg">
<path d="M11.2267 6.1613C10.9346 6.116 10.9223 6.11065 11.0598 6.08955C11.3232 6.049 11.9453 6.10425 12.374 6.20615C13.3747 6.44405 14.2854 7.05345 15.2574 8.1357L15.5157 8.42325L15.8851 8.36385C17.4414 8.11375 19.0247 8.3125 20.3489 8.92425C20.7132 9.09255 21.2876 9.4276 21.3594 9.5137C21.3823 9.5411 21.4243 9.71775 21.4527 9.9062C21.551 10.5582 21.5018 11.058 21.3024 11.4313C21.1939 11.6344 21.1878 11.6988 21.2608 11.8726C21.319 12.0114 21.4814 12.114 21.6422 12.1138C21.9713 12.1134 22.3255 11.5814 22.4896 10.8412L22.5548 10.5472L22.6839 10.6934C23.3923 11.496 23.9487 12.5906 24.0443 13.3697L24.0692 13.5728L23.9501 13.3881C23.7452 13.0704 23.5393 12.854 23.2756 12.6796C22.8003 12.3651 22.2978 12.2581 20.9669 12.1879C19.7648 12.1246 19.0845 12.0219 18.4099 11.8019C17.2622 11.4277 16.6836 10.9294 15.3203 9.1406C14.7147 8.34615 14.3404 7.90655 13.9681 7.55255C13.1221 6.7482 12.2908 6.32635 11.2267 6.1613Z" fill="#FF007A"/>
<path d="M21.6305 7.9352C21.6607 7.40285 21.7329 7.05165 21.8781 6.731C21.9355 6.60405 21.9894 6.50015 21.9977 6.50015C22.006 6.50015 21.981 6.59385 21.9422 6.70835C21.8366 7.0196 21.8193 7.44525 21.892 7.94055C21.9843 8.56895 22.0367 8.6596 22.7009 9.33845C23.0125 9.65685 23.3748 10.0584 23.5062 10.2308L23.745 10.5443L23.5062 10.3203C23.2141 10.0463 22.5423 9.512 22.3939 9.4356C22.2945 9.3844 22.2797 9.38525 22.2183 9.44635C22.1617 9.50265 22.1498 9.5872 22.142 9.98705C22.1298 10.6102 22.0448 11.0102 21.8398 11.4102C21.729 11.6265 21.7115 11.5803 21.8118 11.3362C21.8867 11.1539 21.8943 11.0737 21.8938 10.4704C21.8926 9.25835 21.7487 8.96695 20.9048 8.46775C20.691 8.3413 20.3388 8.1589 20.1221 8.06245C19.9053 7.966 19.7332 7.88195 19.7394 7.8757C19.7633 7.8519 20.5863 8.0921 20.9176 8.2195C21.4103 8.40905 21.4916 8.4336 21.5515 8.41075C21.5916 8.39545 21.611 8.2786 21.6305 7.9352Z" fill="#FF007A"/>
<path d="M11.7941 10.0088C11.2011 9.19231 10.8342 7.94046 10.9136 7.00466L10.9382 6.71506L11.0731 6.73971C11.3267 6.78596 11.7637 6.94866 11.9684 7.07296C12.5301 7.41406 12.7732 7.86316 13.0206 9.01641C13.0931 9.35416 13.1881 9.73641 13.2319 9.86586C13.3023 10.0742 13.5684 10.5607 13.7848 10.8767C13.9406 11.1043 13.8371 11.2121 13.4926 11.181C12.9665 11.1335 12.2539 10.6417 11.7941 10.0088Z" fill="#FF007A"/>
<path d="M20.9112 16.0854C18.1397 14.9695 17.1636 14.0009 17.1636 12.3666C17.1636 12.1261 17.1719 11.9293 17.1819 11.9293C17.192 11.9293 17.2993 12.0087 17.4202 12.1057C17.9822 12.5564 18.6116 12.749 20.3538 13.0031C21.379 13.1527 21.956 13.2735 22.4882 13.45C24.1798 14.011 25.2264 15.1495 25.4759 16.7002C25.5485 17.1508 25.5059 17.9958 25.3883 18.4411C25.2955 18.7929 25.0123 19.4269 24.9371 19.4512C24.9163 19.4579 24.8959 19.3781 24.8905 19.2695C24.862 18.6872 24.5678 18.1203 24.0736 17.6957C23.5118 17.2129 22.7569 16.8285 20.9112 16.0854Z" fill="#FF007A"/>
<path d="M18.9655 16.5489C18.9307 16.3423 18.8705 16.0784 18.8316 15.9625L18.7609 15.7518L18.8923 15.8992C19.074 16.1032 19.2177 16.3643 19.3394 16.712C19.4323 16.9774 19.4428 17.0563 19.4421 17.4876C19.4414 17.911 19.4298 17.9998 19.344 18.2387C19.2087 18.6154 19.0408 18.8824 18.759 19.1691C18.2528 19.6844 17.6019 19.9697 16.6626 20.088C16.4993 20.1086 16.0235 20.1432 15.6051 20.165C14.5508 20.2198 13.8569 20.3331 13.2334 20.552C13.1437 20.5835 13.0637 20.6026 13.0556 20.5945C13.0303 20.5694 13.4549 20.3163 13.8055 20.1474C14.2999 19.9092 14.7921 19.7793 15.8948 19.5956C16.4396 19.5049 17.0021 19.3948 17.145 19.351C18.494 18.9374 19.1874 17.8701 18.9655 16.5489Z" fill="#FF007A"/>
<path d="M20.2359 18.8053C19.8677 18.0137 19.7832 17.2494 19.9849 16.5366C20.0065 16.4605 20.0412 16.3981 20.0621 16.3981C20.0829 16.3981 20.1698 16.4451 20.2551 16.5025C20.4248 16.6168 20.7651 16.8091 21.6718 17.3035C22.8032 17.9203 23.4483 18.398 23.887 18.9437C24.2711 19.4216 24.5089 19.9659 24.6233 20.6297C24.6881 21.0057 24.6501 21.9103 24.5537 22.2889C24.2495 23.4827 23.5425 24.4203 22.5341 24.9675C22.3863 25.0476 22.2537 25.1135 22.2394 25.1138C22.225 25.114 22.2788 24.9772 22.359 24.8096C22.6982 24.1005 22.7368 23.4107 22.4804 22.643C22.3233 22.1729 22.0032 21.5993 21.3567 20.6298C20.6051 19.5027 20.4208 19.2027 20.2359 18.8053Z" fill="#FF007A"/>
<path d="M9.82598 23.0763C10.8545 22.2079 12.1341 21.591 13.2998 21.4016C13.8022 21.32 14.639 21.3524 15.1042 21.4714C15.8499 21.6623 16.5169 22.0897 16.8638 22.5989C17.2029 23.0966 17.3483 23.5303 17.4998 24.4953C17.5595 24.876 17.6245 25.2582 17.6441 25.3447C17.7578 25.8449 17.9792 26.2446 18.2534 26.4453C18.689 26.7641 19.439 26.784 20.1768 26.4962C20.3021 26.4474 20.4108 26.4136 20.4184 26.4212C20.4452 26.4478 20.0737 26.6965 19.8115 26.8274C19.4589 27.0035 19.1784 27.0717 18.8058 27.0717C18.13 27.0717 17.569 26.7279 17.1008 26.027C17.0087 25.889 16.8016 25.4758 16.6407 25.1088C16.1464 23.9814 15.9023 23.638 15.3284 23.2621C14.829 22.9351 14.1849 22.8765 13.7003 23.1141C13.0638 23.4262 12.8862 24.2396 13.3421 24.7551C13.5233 24.9599 13.8612 25.1366 14.1375 25.171C14.6543 25.2353 15.0985 24.8421 15.0985 24.3202C15.0985 23.9814 14.9683 23.788 14.6404 23.6401C14.1926 23.438 13.7113 23.6742 13.7136 24.0949C13.7146 24.2742 13.7927 24.3869 13.9725 24.4682C14.0879 24.5204 14.0906 24.5246 13.9965 24.505C13.5856 24.4198 13.4894 23.9245 13.8197 23.5957C14.2163 23.2009 15.0365 23.3751 15.3181 23.914C15.4364 24.1403 15.4502 24.591 15.347 24.8632C15.1161 25.4724 14.443 25.7927 13.7601 25.6184C13.2952 25.4997 13.1059 25.3712 12.5453 24.7938C11.5713 23.7905 11.1931 23.596 9.78887 23.3768L9.51978 23.3348L9.82598 23.0763Z" fill="#FF007A"/>
<path fill-rule="evenodd" clip-rule="evenodd" d="M2.48101 0.600155C5.7339 4.54819 10.7489 10.6951 10.9979 11.0392C11.2034 11.3233 11.1261 11.5788 10.7739 11.779C10.5781 11.8904 10.1754 12.0031 9.9738 12.0031C9.7458 12.0031 9.48895 11.8933 9.3019 11.7159C9.16965 11.5905 8.63605 10.7937 7.4042 8.8823C6.46165 7.4198 5.67285 6.20655 5.65135 6.18625C5.6016 6.13925 5.60245 6.14085 7.3081 9.1927C8.3791 11.1091 8.74065 11.7866 8.74065 11.8772C8.74065 12.0615 8.6904 12.1583 8.46305 12.4119C8.08405 12.8347 7.91465 13.3098 7.79235 14.293C7.6552 15.3951 7.2697 16.1737 6.2013 17.5061C5.5759 18.2861 5.47355 18.4291 5.31575 18.7435C5.11695 19.1393 5.0623 19.361 5.04015 19.861C5.01675 20.3895 5.06235 20.731 5.22385 21.2363C5.3652 21.6788 5.51275 21.9708 5.89 22.5552C6.21555 23.0594 6.40305 23.4342 6.40305 23.5807C6.40305 23.6974 6.4253 23.6975 6.9298 23.5836C8.13705 23.3109 9.1174 22.8315 9.66875 22.2439C10.01 21.8802 10.0901 21.6793 10.0927 21.1809C10.0944 20.8549 10.0829 20.7866 9.9948 20.5991C9.85135 20.2938 9.5902 20.0401 9.0146 19.6466C8.26045 19.1311 7.93835 18.716 7.84935 18.1452C7.77635 17.6768 7.86105 17.3464 8.27825 16.472C8.7101 15.5669 8.8171 15.1812 8.8895 14.2689C8.93625 13.6795 9.001 13.447 9.17035 13.2605C9.34695 13.0659 9.50595 13 9.94305 12.9402C10.6557 12.8429 11.1094 12.6586 11.4824 12.3148C11.806 12.0167 11.9414 11.7294 11.9622 11.2969L11.9779 10.9691L11.7971 10.7583C11.1423 9.9948 2.0425 0 2.0022 0C1.9936 0 2.20907 0.270089 2.48101 0.600155ZM6.7706 20.459C6.91865 20.1968 6.84 19.8598 6.59235 19.6951C6.35835 19.5395 5.99485 19.6128 5.99485 19.8155C5.99485 19.8774 6.0291 19.9225 6.1062 19.9622C6.236 20.029 6.24545 20.1041 6.1433 20.2576C6.03985 20.4131 6.0482 20.5498 6.16685 20.6427C6.3581 20.7924 6.6288 20.7101 6.7706 20.459Z" fill="#FF007A"/>
<path fill-rule="evenodd" clip-rule="evenodd" d="M12.4276 13.1122C12.0931 13.2149 11.7679 13.5695 11.6672 13.9413C11.6058 14.1681 11.6407 14.5659 11.7327 14.6888C11.8813 14.8872 12.025 14.9395 12.4141 14.9368C13.1759 14.9315 13.8382 14.6047 13.9152 14.1962C13.9784 13.8614 13.6875 13.3974 13.2868 13.1937C13.0801 13.0886 12.6404 13.0469 12.4276 13.1122ZM13.3182 13.8086C13.4357 13.6417 13.3843 13.4612 13.1845 13.3392C12.804 13.1069 12.2286 13.2991 12.2286 13.6586C12.2286 13.8376 12.5286 14.0328 12.8037 14.0328C12.9868 14.0328 13.2373 13.9236 13.3182 13.8086Z" fill="#FF007A"/>
</svg>