<svg width="36" height="36" viewBox="0 0 36 36" fill="none" xmlns="http://www.w3.org/2000/svg">
<circle cx="18" cy="18" r="18" transform="matrix(-1 0 0 1 36 0)" fill="#3956E5"/>
<mask id="mask0_1116_961" style="mask-type:alpha" maskUnits="userSpaceOnUse" x="0" y="0" width="36" height="36">
<circle cx="18" cy="18" r="18" transform="matrix(-1 0 0 1 36 0)" fill="#3956E5"/>
</mask>
<g mask="url(#mask0_1116_961)">
<path fill-rule="evenodd" clip-rule="evenodd" d="M7.3125 13.2755C7.3125 10.2929 9.73039 7.875 12.713 7.875H25.875C27.4283 7.875 28.6875 9.1342 28.6875 10.6875C28.6875 12.2408 27.4283 13.5 25.875 13.5H13.9622L25.1674 17.6619C27.2835 18.4479 28.6875 20.4671 28.6875 22.7245C28.6875 25.7071 26.2696 28.125 23.287 28.125H-2.8125C-4.3658 28.125 -5.625 26.8658 -5.625 25.3125C-5.625 23.7592 -4.3658 22.5 -2.8125 22.5H22.0378L10.8326 18.3381C8.71651 17.5521 7.3125 15.5329 7.3125 13.2755Z" fill="url(#paint0_linear_1116_961)"/>
</g>
<defs>
<linearGradient id="paint0_linear_1116_961" x1="28.4062" y1="11.25" x2="-6.75" y2="11.25" gradientUnits="userSpaceOnUse">
<stop offset="0.226268" stop-color="white"/>
<stop offset="1" stop-color="white" stop-opacity="0"/>
</linearGradient>
</defs>
</svg>