<svg width="15" height="14" viewBox="0 0 15 14" fill="none" xmlns="http://www.w3.org/2000/svg">
<path d="M12.3984 3.9375H3.64844C3.53241 3.9375 3.42113 3.89141 3.33908 3.80936C3.25703 3.72731 3.21094 3.61603 3.21094 3.5C3.21094 3.38397 3.25703 3.27269 3.33908 3.19064C3.42113 3.10859 3.53241 3.0625 3.64844 3.0625H11.0859C11.202 3.0625 11.3132 3.01641 11.3953 2.93436C11.4773 2.85231 11.5234 2.74103 11.5234 2.625C11.5234 2.50897 11.4773 2.39769 11.3953 2.31564C11.3132 2.23359 11.202 2.1875 11.0859 2.1875H3.64844C3.30034 2.1875 2.9665 2.32578 2.72036 2.57192C2.47422 2.81806 2.33594 3.1519 2.33594 3.5V10.5C2.33594 10.8481 2.47422 11.1819 2.72036 11.4281C2.9665 11.6742 3.30034 11.8125 3.64844 11.8125H12.3984C12.6305 11.8125 12.8531 11.7203 13.0172 11.5562C13.1813 11.3921 13.2734 11.1696 13.2734 10.9375V4.8125C13.2734 4.58044 13.1813 4.35788 13.0172 4.19378C12.8531 4.02969 12.6305 3.9375 12.3984 3.9375ZM12.3984 10.9375H3.64844C3.53241 10.9375 3.42113 10.8914 3.33908 10.8094C3.25703 10.7273 3.21094 10.616 3.21094 10.5V4.73758C3.35142 4.78738 3.49939 4.81272 3.64844 4.8125H12.3984V10.9375ZM9.77344 7.65625C9.77344 7.52646 9.81193 7.39958 9.88404 7.29166C9.95615 7.18374 10.0586 7.09962 10.1786 7.04995C10.2985 7.00028 10.4304 6.98729 10.5577 7.01261C10.685 7.03793 10.8019 7.10043 10.8937 7.19221C10.9855 7.28399 11.048 7.40092 11.0733 7.52822C11.0986 7.65552 11.0857 7.78747 11.036 7.90739C10.9863 8.0273 10.9022 8.12979 10.7943 8.2019C10.6864 8.27401 10.5595 8.3125 10.4297 8.3125C10.2556 8.3125 10.0887 8.24336 9.96565 8.12029C9.84258 7.99722 9.77344 7.8303 9.77344 7.65625Z" fill="white" fill-opacity="0.8"/>
</svg>
