<svg width="27" height="27" viewBox="0 0 27 27" fill="none" xmlns="http://www.w3.org/2000/svg">
<path d="M13.5859 0.5C11.0148 0.5 8.50137 1.26244 6.36353 2.6909C4.22569 4.11935 2.55945 6.14968 1.57551 8.52512C0.59157 10.9006 0.334127 13.5144 0.835735 16.0362C1.33734 18.5579 2.57547 20.8743 4.39356 22.6924C6.21164 24.5105 8.52802 25.7486 11.0498 26.2502C13.5715 26.7518 16.1854 26.4944 18.5608 25.5104C20.9363 24.5265 22.9666 22.8603 24.395 20.7224C25.8235 18.5846 26.5859 16.0712 26.5859 13.5C26.5823 10.0533 25.2115 6.74882 22.7743 4.31163C20.3371 1.87445 17.0326 0.50364 13.5859 0.5ZM19.2934 11.2075L12.2934 18.2075C12.2006 18.3005 12.0903 18.3742 11.9689 18.4246C11.8475 18.4749 11.7174 18.5008 11.5859 18.5008C11.4545 18.5008 11.3244 18.4749 11.203 18.4246C11.0816 18.3742 10.9713 18.3005 10.8784 18.2075L7.87844 15.2075C7.6908 15.0199 7.58539 14.7654 7.58539 14.5C7.58539 14.2346 7.6908 13.9801 7.87844 13.7925C8.06608 13.6049 8.32058 13.4994 8.58594 13.4994C8.85131 13.4994 9.1058 13.6049 9.29344 13.7925L11.5859 16.0863L17.8784 9.7925C17.9714 9.69959 18.0817 9.62589 18.203 9.57561C18.3244 9.52532 18.4545 9.49944 18.5859 9.49944C18.7173 9.49944 18.8474 9.52532 18.9688 9.57561C19.0902 9.62589 19.2005 9.69959 19.2934 9.7925C19.3864 9.88541 19.4601 9.99571 19.5103 10.1171C19.5606 10.2385 19.5865 10.3686 19.5865 10.5C19.5865 10.6314 19.5606 10.7615 19.5103 10.8829C19.4601 11.0043 19.3864 11.1146 19.2934 11.2075Z" fill="#41F35F"/>
</svg>
