<svg width="33" height="33" viewBox="0 0 33 33" fill="none" xmlns="http://www.w3.org/2000/svg">
<path d="M30.1873 24.0112L19.256 5.02746C18.9829 4.56237 18.5929 4.17673 18.1248 3.90879C17.6567 3.64084 17.1267 3.49988 16.5873 3.49988C16.0479 3.49988 15.5179 3.64084 15.0498 3.90879C14.5817 4.17673 14.1917 4.56237 13.9185 5.02746L2.98728 24.0112C2.72445 24.4611 2.58594 24.9727 2.58594 25.4937C2.58594 26.0147 2.72445 26.5264 2.98728 26.9762C3.25694 27.4441 3.64624 27.8318 4.11523 28.0996C4.58422 28.3674 5.11601 28.5056 5.65603 28.5H27.5185C28.0581 28.5051 28.5894 28.3667 29.0579 28.099C29.5264 27.8312 29.9153 27.4437 30.1848 26.9762C30.448 26.5266 30.5869 26.0151 30.5874 25.494C30.5878 24.973 30.4497 24.4613 30.1873 24.0112ZM15.5873 13.5C15.5873 13.2347 15.6926 12.9804 15.8802 12.7929C16.0677 12.6053 16.3221 12.5 16.5873 12.5C16.8525 12.5 17.1068 12.6053 17.2944 12.7929C17.4819 12.9804 17.5873 13.2347 17.5873 13.5V18.5C17.5873 18.7652 17.4819 19.0195 17.2944 19.2071C17.1068 19.3946 16.8525 19.5 16.5873 19.5C16.3221 19.5 16.0677 19.3946 15.8802 19.2071C15.6926 19.0195 15.5873 18.7652 15.5873 18.5V13.5ZM16.5873 24.5C16.2906 24.5 16.0006 24.412 15.7539 24.2472C15.5072 24.0823 15.315 23.8481 15.2015 23.574C15.0879 23.2999 15.0582 22.9983 15.1161 22.7073C15.174 22.4164 15.3168 22.1491 15.5266 21.9393C15.7364 21.7295 16.0037 21.5867 16.2946 21.5288C16.5856 21.4709 16.8872 21.5006 17.1613 21.6141C17.4354 21.7277 17.6697 21.9199 17.8345 22.1666C17.9993 22.4133 18.0873 22.7033 18.0873 23C18.0873 23.3978 17.9292 23.7793 17.6479 24.0606C17.3666 24.3419 16.9851 24.5 16.5873 24.5Z" fill="#FE4649"/>
</svg>
