<svg version="1.0" xmlns="http://www.w3.org/2000/svg"
 width="1500.000000pt" height="1500.000000pt" viewBox="0 0 1500.000000 1500.000000"
 preserveAspectRatio="xMidYMid meet">

<g transform="translate(0.000000,1500.000000) scale(0.100000,-0.100000)"
fill="#000000" stroke="none">
<path d="M7165 13009 c-1528 -43 -2879 -382 -3450 -865 -193 -164 -297 -362
-281 -536 24 -264 247 -504 666 -717 659 -336 1667 -552 2849 -611 436 -22
1096 -11 1541 25 1438 118 2604 498 2982 973 162 204 188 400 82 603 -289 550
-1531 981 -3181 1104 -181 14 -814 37 -903 33 -19 -1 -156 -5 -305 -9z"/>
<path d="M5050 9963 c-1152 -203 -1987 -490 -2515 -864 -178 -127 -354 -317
-429 -466 -65 -130 -86 -315 -51 -448 136 -512 894 -971 2120 -1285 1312 -336
3044 -455 4665 -319 1785 149 3247 597 3833 1174 195 192 287 377 289 580 2
211 -91 395 -301 597 -119 115 -228 196 -404 300 -500 296 -1317 559 -2238
718 l-125 22 -180 -40 c-1387 -309 -3067 -308 -4444 3 -153 34 -170 37 -220
28z"/>
<path d="M4105 6245 c-529 -103 -1066 -243 -1480 -385 -400 -138 -871 -351
-1120 -508 -365 -230 -606 -469 -725 -716 -73 -155 -85 -206 -85 -376 1 -138
2 -150 34 -242 62 -181 159 -325 338 -499 769 -750 2685 -1318 5008 -1484 918
-65 1932 -65 2850 0 2323 166 4239 734 5008 1484 179 174 276 318 338 499 32
92 33 104 34 242 0 170 -12 221 -85 376 -119 247 -360 486 -725 716 -249 157
-720 370 -1120 508 -422 145 -1037 304 -1528 394 l-137 25 -147 -35 c-1841
-440 -4228 -444 -6088 -8 -104 24 -191 44 -195 43 -3 0 -81 -15 -175 -34z"/>
</g>
</svg>
