<svg version="1.0" xmlns="http://www.w3.org/2000/svg"
 width="512.000000pt" height="512.000000pt" viewBox="0 0 512.000000 512.000000"
 preserveAspectRatio="xMidYMid meet">

<g transform="translate(0.000000,512.000000) scale(0.100000,-0.100000)"
fill="#fff" stroke="none">
<path d="M2270 5113 c-365 -17 -823 -99 -1083 -193 -102 -37 -125 -61 -111
-113 6 -17 21 -38 36 -46 24 -14 37 -12 175 32 81 26 190 56 240 68 l93 21
106 -56 c99 -53 203 -124 233 -159 11 -14 7 -17 -31 -27 -116 -30 -158 -44
-223 -75 -161 -78 -219 -178 -165 -284 51 -101 228 -185 483 -231 61 -11 112
-21 113 -23 6 -6 73 -272 69 -275 -1 -2 -70 4 -152 12 -83 9 -157 16 -166 16
-9 0 -40 33 -70 73 -240 324 -588 525 -986 568 l-110 12 15 28 c15 31 65 83
132 140 48 41 54 71 21 113 -40 51 -100 28 -205 -79 -104 -106 -148 -226 -125
-338 7 -33 21 -77 31 -97 117 -228 503 -423 1043 -527 l139 -27 33 -67 c74
-145 157 -437 190 -662 34 -235 30 -540 -11 -782 -32 -195 -114 -467 -179
-596 l-34 -66 -138 -27 c-216 -42 -374 -86 -400 -112 -30 -30 -30 -74 0 -102
30 -28 47 -28 154 3 48 14 127 34 175 44 l88 19 -37 -45 c-117 -143 -355 -293
-565 -357 -77 -24 -253 -56 -306 -56 -22 0 -22 0 -6 32 25 49 113 128 197 178
98 58 116 93 76 144 -29 37 -71 34 -148 -11 -367 -218 -409 -524 -104 -762
457 -356 1595 -515 2591 -362 660 102 1117 333 1202 608 11 36 20 79 20 97 0
39 -22 121 -43 162 -115 223 -505 418 -1040 521 l-139 27 -33 66 c-74 146
-155 431 -191 665 -26 169 -26 541 0 710 36 234 117 519 191 665 l33 66 139
27 c604 116 999 337 1069 599 19 71 18 104 -6 181 -105 341 -760 599 -1665
657 -146 9 -454 11 -615 3z m210 -278 l0 -135 -77 0 c-43 0 -116 -4 -162 -10
l-84 -9 -92 87 c-50 49 -113 101 -138 117 -26 17 -47 33 -47 36 0 11 362 44
528 47 l72 2 0 -135z m400 125 c195 -13 360 -32 360 -41 0 -4 -20 -19 -45 -34
-25 -14 -87 -66 -139 -115 l-93 -89 -84 9 c-46 6 -119 10 -161 10 l-78 0 0
135 0 135 53 0 c28 -1 113 -5 187 -10z m772 -114 c361 -93 621 -225 716 -361
l34 -50 -108 -13 c-408 -47 -750 -244 -991 -569 -30 -40 -61 -73 -70 -73 -9 0
-83 -7 -166 -16 -82 -8 -151 -14 -152 -12 -4 3 63 269 68 275 2 1 37 9 77 17
80 15 110 37 110 83 0 28 -41 73 -67 73 -10 0 -56 -7 -102 -14 l-83 -14 6 48
c11 82 67 228 108 283 13 17 19 16 133 -12 123 -31 259 -91 279 -123 9 -15 3
-25 -37 -61 -52 -49 -60 -79 -28 -118 56 -70 207 33 219 150 11 120 -113 223
-347 285 -51 14 -96 27 -98 30 -3 2 24 28 59 57 60 49 269 169 295 169 7 0 72
-15 145 -34z m-1172 -493 l0 -198 -65 3 -65 4 0 31 c0 54 -38 195 -74 272
l-34 74 31 4 c18 2 71 5 120 5 l87 2 0 -197z m352 191 l46 -6 -34 -74 c-32
-68 -69 -200 -76 -269 -3 -29 -5 -30 -66 -35 l-62 -5 0 198 0 197 74 0 c40 0
94 -3 118 -6z m-716 -90 c35 -64 88 -231 82 -262 -3 -19 -5 -19 -113 -1 -186
31 -380 103 -409 152 -14 23 14 48 100 89 59 28 279 90 298 84 6 -1 25 -29 42
-62z m-1181 -201 c238 -46 468 -172 643 -351 40 -41 71 -76 70 -78 -2 -2 -67
12 -143 31 -400 97 -694 248 -771 396 l-16 32 69 -7 c37 -4 104 -14 148 -23z
m3450 -3 c-58 -112 -242 -227 -514 -321 -113 -39 -391 -112 -399 -104 -8 8
147 155 223 211 192 141 441 231 673 242 l33 2 -16 -30z m-1907 -377 l3 -133
-59 0 -58 0 -28 122 c-16 67 -31 128 -33 135 -4 11 12 13 83 11 l89 -3 3 -132z
m339 124 c-3 -7 -17 -68 -33 -135 l-28 -122 -58 0 -58 0 0 128 c0 71 3 132 7
135 3 4 44 7 91 7 65 0 83 -3 79 -13z m-704 -388 c67 -7 123 -13 125 -14 4 -3
42 -213 42 -231 0 -9 -15 -9 -67 2 -71 14 -173 40 -178 46 -3 4 -64 166 -72
191 -6 21 -8 20 150 6z m1044 -6 c-3 -10 -20 -57 -39 -106 -37 -99 -25 -91
-193 -127 -56 -12 -81 -14 -83 -6 -2 11 34 226 40 231 3 3 191 21 247 24 27 1
32 -2 28 -16z m-438 -35 c0 -13 -8 -70 -18 -128 l-17 -105 -124 0 -124 0 -17
105 c-28 168 -45 150 141 150 159 0 160 0 159 -22z m-509 -354 c101 -19 95
-10 106 -145 l7 -86 -54 5 c-30 2 -72 7 -94 11 l-40 7 -22 99 c-27 123 -28
139 -7 131 8 -3 55 -13 104 -22z m797 -104 l-22 -105 -40 -6 c-22 -4 -64 -9
-94 -11 l-54 -5 7 86 c11 136 3 126 119 147 65 12 103 16 105 9 1 -5 -8 -57
-21 -115z m-352 -27 c-4 -54 -13 -101 -19 -105 -6 -4 -40 -8 -76 -8 -36 0 -70
4 -76 8 -6 4 -15 51 -19 105 l-7 97 102 0 102 0 -7 -97z m-358 -249 c30 -4 32
-8 38 -57 4 -29 5 -72 3 -97 l-3 -45 -81 -3 -81 -3 -6 68 c-4 37 -7 87 -7 110
l0 42 53 -5 c28 -3 66 -7 84 -10z m663 -26 c0 -24 -3 -74 -7 -111 l-6 -68 -81
3 -81 3 1 92 c0 51 4 96 7 100 4 3 37 10 75 13 37 4 73 8 80 9 8 1 12 -13 12
-41z m-324 -10 c-3 -13 -6 -56 -6 -95 l0 -73 -70 0 -70 0 0 73 c0 39 -3 82 -6
95 -6 21 -5 22 76 22 81 0 82 -1 76 -22z m-296 -375 c0 -32 -3 -75 -6 -95 -6
-35 -9 -37 -53 -43 -25 -3 -63 -8 -83 -10 l-38 -5 0 52 c0 29 3 77 6 106 l7
52 83 0 84 0 0 -57z m290 -10 c0 -38 3 -78 6 -90 6 -22 5 -23 -76 -23 -81 0
-82 1 -76 23 3 12 6 52 6 90 l0 67 70 0 70 0 0 -67z m324 6 c3 -34 6 -82 6
-106 l0 -43 -37 5 c-21 2 -59 7 -84 10 -42 5 -47 9 -53 37 -3 17 -6 59 -6 94
l0 64 84 0 83 0 7 -61z m-311 -276 c3 -5 8 -52 12 -105 l7 -98 -102 0 -102 0
7 98 c4 53 9 100 12 105 2 4 40 7 83 7 43 0 81 -3 83 -7z m-327 -90 c-11 -137
-2 -126 -122 -149 -66 -13 -104 -17 -104 -10 0 21 42 211 49 218 3 4 42 11 86
16 44 5 84 10 89 11 5 0 6 -37 2 -86z m629 68 l40 -7 22 -99 c32 -146 40 -135
-81 -111 -120 23 -111 12 -122 147 l-7 86 54 -5 c30 -2 72 -7 94 -11z m-244
-441 c28 -168 45 -150 -141 -150 -138 0 -160 2 -160 15 0 18 30 214 36 233 3
10 33 12 126 10 l122 -3 17 -105z m-440 -44 c-11 -59 -21 -110 -23 -111 -6 -6
-270 -27 -275 -22 -3 3 6 34 20 69 14 35 31 80 38 100 15 43 29 49 167 78 61
12 88 14 90 6 1 -6 -6 -60 -17 -120z m774 89 c45 -13 52 -19 64 -52 7 -21 24
-66 38 -101 14 -35 23 -66 20 -68 -4 -5 -269 16 -275 21 -4 3 -42 213 -42 231
0 13 97 -2 195 -31z m-252 -462 c15 -65 27 -125 27 -134 0 -14 -28 -16 -250
-16 -222 0 -250 2 -250 16 0 9 12 69 27 134 l27 117 196 0 196 0 27 -117z
m-578 95 c-2 -7 -16 -67 -31 -133 -14 -66 -29 -123 -33 -127 -4 -5 -49 -15
-101 -24 -260 -44 -448 -133 -500 -235 -71 -138 56 -270 329 -343 51 -14 95
-27 98 -29 7 -8 -99 -92 -162 -129 -33 -20 -89 -50 -123 -67 l-64 -32 -96 21
c-354 80 -673 235 -770 375 l-34 50 103 12 c413 48 745 238 994 569 l54 71
133 13 c73 6 140 13 148 15 37 7 59 4 55 -7z m928 -9 l118 -12 57 -76 c245
-325 580 -516 991 -564 l103 -12 -34 -50 c-97 -139 -413 -293 -770 -375 l-97
-22 -107 56 c-99 53 -203 124 -233 159 -11 14 -7 17 31 27 116 30 158 44 223
75 87 42 140 85 165 136 38 74 16 157 -57 219 -82 68 -253 131 -443 164 -52 9
-97 19 -101 24 -4 4 -19 61 -33 127 -15 66 -29 126 -32 134 -3 11 7 12 48 7
29 -3 106 -11 171 -17z m487 -85 c352 -82 657 -233 748 -369 42 -62 40 -62
-109 -40 -118 17 -282 66 -370 110 -136 69 -316 206 -388 295 -26 32 -29 41
-15 37 11 -3 71 -18 134 -33z m-1140 -494 l0 -200 -74 0 c-40 0 -94 3 -118 6
l-46 6 34 74 c36 76 74 217 74 271 l0 32 63 4 c34 2 63 4 65 5 1 1 2 -88 2
-198z m290 157 c0 -54 38 -195 74 -271 l34 -74 -46 -6 c-24 -3 -78 -6 -118 -6
l-74 0 0 198 0 197 65 -3 65 -4 0 -31z m-594 -108 c-25 -85 -58 -163 -88 -202
-13 -17 -19 -16 -132 12 -173 44 -297 107 -283 144 20 52 200 120 412 155 132
23 130 26 91 -109z m1002 80 c142 -35 263 -94 270 -132 4 -20 -67 -68 -148
-98 -46 -17 -139 -43 -237 -64 -19 -4 -28 4 -53 47 -33 58 -78 188 -87 254
l-5 42 88 -14 c49 -8 126 -24 172 -35z m-835 -475 l137 -7 0 -134 0 -133 -52
0 c-136 1 -548 38 -548 49 0 3 21 19 47 36 26 16 88 69 137 117 76 73 95 87
116 83 14 -2 87 -7 163 -11z m713 -73 c52 -50 114 -102 139 -116 25 -15 45
-30 45 -34 0 -13 -401 -50 -547 -51 l-53 0 0 135 0 135 88 1 c48 1 114 5 147
9 33 4 66 8 74 9 7 0 56 -39 107 -88z"/>
</g>
</svg>
