<svg width="40" height="40" viewBox="0 0 40 40" fill="none" xmlns="http://www.w3.org/2000/svg">
<path d="M28.3304 12.5234C26.7536 11.8015 25.0889 11.2893 23.379 11C23.145 11.4183 22.9333 11.8487 22.7447 12.2893C20.9233 12.0148 19.0711 12.0148 17.2497 12.2893C17.061 11.8487 16.8493 11.4183 16.6154 11C14.9044 11.2917 13.2386 11.8051 11.6602 12.5271C8.52665 17.1633 7.67719 21.6843 8.10192 26.1411C9.93701 27.497 11.991 28.5281 14.1746 29.1897C14.6663 28.5284 15.1014 27.8269 15.4752 27.0925C14.7652 26.8273 14.0798 26.5001 13.4271 26.1147C13.5989 25.9901 13.7669 25.8617 13.9292 25.7372C15.8284 26.6303 17.9013 27.0934 20 27.0934C22.0988 27.0934 24.1716 26.6303 26.0708 25.7372C26.2351 25.8712 26.4031 25.9995 26.573 26.1147C25.919 26.5007 25.2324 26.8286 24.521 27.0944C24.8944 27.8284 25.3296 28.5294 25.8217 29.1897C28.0071 28.5308 30.0627 27.5001 31.8981 26.143C32.3965 20.9745 31.0468 16.4951 28.3304 12.5234ZM16.0132 23.4002C14.8296 23.4002 13.8518 22.3261 13.8518 21.0047C13.8518 19.6834 14.7957 18.5998 16.0095 18.5998C17.2232 18.5998 18.1935 19.6834 18.1727 21.0047C18.152 22.3261 17.2195 23.4002 16.0132 23.4002ZM23.9868 23.4002C22.8014 23.4002 21.8273 22.3261 21.8273 21.0047C21.8273 19.6834 22.7712 18.5998 23.9868 18.5998C25.2025 18.5998 26.1652 19.6834 26.1445 21.0047C26.1237 22.3261 25.1931 23.4002 23.9868 23.4002Z" fill="white"/>
</svg>
