<svg width="40" height="40" viewBox="0 0 40 40" fill="none" xmlns="http://www.w3.org/2000/svg">
<path fill-rule="evenodd" clip-rule="evenodd" d="M21.7407 10.2446L30.8673 14.8079C31.2891 15.0188 31.2956 15.6183 30.8786 15.8384L19.0253 22.0943C18.3644 22.4431 17.5759 22.4518 16.9075 22.1176L9.46524 18.3965C8.55858 18.0322 7.54482 18.6975 7.54482 19.6995C7.54482 20.5051 7.99999 21.2416 8.72056 21.6019L16.182 25.3326C16.6374 24.8688 17.2716 24.5811 17.973 24.5811C18.6544 24.5811 19.2723 24.8526 19.7246 25.2932L29.0181 20.3883C28.9926 20.2449 28.9793 20.0973 28.9793 19.9466C28.9793 18.5602 30.1033 17.4363 31.4897 17.4363C32.8761 17.4363 34 18.5602 34 19.9466C34 21.333 32.8761 22.4569 31.4897 22.4569C30.8118 22.4569 30.1966 22.1882 29.7449 21.7515L20.4463 26.6591C20.4707 26.7996 20.4834 26.944 20.4834 27.0915C20.4834 28.4779 19.3594 29.6018 17.973 29.6018C16.5866 29.6018 15.4627 28.4779 15.4627 27.0915C15.4627 26.9633 15.4723 26.8373 15.4909 26.7142L7.9214 22.9295C6.74384 22.3407 6 21.1372 6 19.8206V19.0873C6 18.0846 6.55494 17.1643 7.44171 16.6963L19.6228 10.2679C20.2837 9.91909 21.0723 9.91043 21.7407 10.2446ZM17.973 28.057C18.5063 28.057 18.9385 27.6247 18.9385 27.0915C18.9385 26.5582 18.5063 26.126 17.973 26.126C17.4398 26.126 17.0075 26.5582 17.0075 27.0915C17.0075 27.6247 17.4398 28.057 17.973 28.057ZM32.4552 19.9466C32.4552 20.4798 32.0229 20.9121 31.4897 20.9121C30.9564 20.9121 30.5242 20.4798 30.5242 19.9466C30.5242 19.4133 30.9564 18.9811 31.4897 18.9811C32.0229 18.9811 32.4552 19.4133 32.4552 19.9466Z" fill="white"/>
</svg>
