<svg width="128" height="128" viewBox="0 0 128 128" fill="none" xmlns="http://www.w3.org/2000/svg">
<path d="M60.4651 86.7788L22.5344 95.5598C21.1509 95.9064 20.1133 97.2929 20.1133 98.6793V124.791C20.1133 126.987 21.8426 128.373 24.0332 127.911L76.9517 115.664C79.1422 115.201 80.0646 113.122 79.1422 111.158L69.5731 91.4003C68.0743 88.2808 69.5731 85.0457 72.9165 84.3524L107.504 76.0336C109.925 75.4559 112 72.914 112 70.3722V46.2244C112 44.0291 110.271 42.5271 108.08 43.1048L58.1593 55.0054C55.0464 55.6986 53.6629 58.7027 55.0464 61.5911L63.8085 79.7308C65.3073 82.8504 63.8085 85.97 60.4651 86.7788Z" fill="white"/>
<path d="M35.4487 21.4997L45.3638 41.8346C46.632 44.492 45.3638 47.265 42.4815 47.8427L24.1502 52.1176C21.8444 52.6953 19.9998 55.0061 19.9998 57.3169V79.1539C19.9998 82.8511 22.9973 85.1619 26.5713 84.3531L43.6344 80.4248C45.9402 79.9626 47.7849 77.5363 47.7849 75.2255L47.9002 52.8109C47.9002 49.6913 50.4366 46.5717 53.4341 45.8785L109.35 32.4759C110.734 32.1293 111.771 30.7428 111.771 29.3563V3.24441C111.771 1.04916 110.042 -0.452856 107.851 0.124841L37.6393 16.9936C35.4487 17.4558 34.5264 19.5355 35.4487 21.4997Z" fill="white"/>
</svg>
