<svg width="24" height="24" viewBox="0 0 24 24" fill="none" xmlns="http://www.w3.org/2000/svg">
<path fill-rule="evenodd" clip-rule="evenodd" d="M9.26445 8.94315C9.2196 9.11617 9.14138 9.27862 9.03412 9.42135C8.83448 9.6816 8.57025 9.88455 8.26792 10.0099C7.99605 10.1276 7.70805 10.2037 7.41367 10.2356C7.35315 10.2433 7.29045 10.2481 7.22962 10.2527L7.21973 10.2535C7.03328 10.2606 6.85403 10.3275 6.70815 10.4444C6.56228 10.5613 6.4575 10.722 6.40912 10.903C6.387 10.993 6.3705 11.0844 6.35985 11.1766C6.3429 11.3155 6.3342 11.4578 6.32475 11.6117C6.318 11.7221 6.3108 11.8386 6.3 11.9641C6.2367 12.4753 6.08947 12.9724 5.8644 13.4352C5.81842 13.5325 5.77155 13.6268 5.72542 13.7194C5.47867 14.216 5.2557 14.6645 5.31968 15.2651C5.36978 15.728 5.6058 16.0381 5.91937 16.358C6.06833 16.511 6.2658 16.6417 6.47078 16.7774C7.04453 17.1572 7.67708 17.576 7.46865 18.6311C7.2981 19.486 5.88705 20.3832 3.90375 20.6966C4.09612 20.6672 3.67238 19.9409 3.62535 19.8603L3.6225 19.8554C3.56782 19.7694 3.5118 19.6847 3.45592 19.6C3.29452 19.3557 3.13372 19.1126 3.00832 18.8431C2.67697 18.1392 2.52337 17.3249 2.65912 16.5536C2.78212 15.8555 3.24158 15.2979 3.68385 14.761C3.756 14.6734 3.82762 14.5865 3.8973 14.4996C4.4889 13.7616 5.1096 12.7946 5.24693 11.8366C5.25855 11.7534 5.2689 11.6626 5.27977 11.5672C5.29927 11.3962 5.32042 11.2102 5.35365 11.0248C5.40292 10.7046 5.50283 10.3943 5.64945 10.1057C5.7495 9.9165 5.88128 9.74595 6.039 9.60157C6.1212 9.52492 6.17543 9.42278 6.19305 9.31148C6.2106 9.20025 6.1905 9.08625 6.13597 8.98777L2.97435 3.27548L7.51553 8.90498C7.56728 8.97023 7.6326 9.02325 7.707 9.06022C7.7814 9.0972 7.863 9.1173 7.94595 9.1191C8.02898 9.1209 8.11132 9.10433 8.18722 9.0705C8.26312 9.03675 8.3307 8.98657 8.38515 8.92365C8.44268 8.8563 8.4753 8.77102 8.47748 8.68222C8.47973 8.5935 8.45138 8.50672 8.39723 8.43652C8.1861 8.16547 7.96635 7.89075 7.74765 7.61722C7.65915 7.5066 7.57072 7.39598 7.4832 7.2861L6.34042 5.86538L4.04678 3.02865L1.5 0L4.341 2.77455L6.78248 5.48618L8.00047 6.84525C8.11237 6.97185 8.22427 7.09733 8.3361 7.22273C8.6283 7.55033 8.9205 7.87793 9.2127 8.22548L9.279 8.30663L9.29355 8.43247C9.3132 8.6031 9.30338 8.7759 9.26445 8.94315ZM20.9435 10.8523L20.9483 10.8596C20.9475 10.2539 20.5742 9.25455 19.8185 8.29327L19.8008 8.26973C19.568 7.98075 19.3143 7.7094 19.0418 7.45785C18.9909 7.40835 18.936 7.3596 18.8802 7.31093C18.5311 7.00507 18.1495 6.73875 17.7423 6.5169L17.7132 6.50228C16.4338 5.80245 14.769 5.442 12.7162 5.8479C12.4405 5.51168 12.1435 5.1936 11.8272 4.89563C11.3427 4.43183 10.7724 4.06808 10.1486 3.82477C9.5304 3.59745 8.8683 3.5163 8.21378 3.5877C8.84468 3.64477 9.45923 3.82103 10.025 4.1073C10.5713 4.40138 11.0634 4.78747 11.4797 5.2488C11.9016 5.71972 12.2982 6.21292 12.6677 6.72638L12.7604 6.84765C13.122 7.32067 13.4901 7.80225 13.9487 8.2308C14.2011 8.46937 14.4827 8.6748 14.7868 8.84212C14.8675 8.88352 14.9492 8.92245 15.0292 8.95658C15.1092 8.9907 15.1844 9.02235 15.2652 9.0516C15.4212 9.11242 15.5828 9.16282 15.7444 9.2091C16.391 9.3942 17.0529 9.46073 17.6995 9.4965C17.7894 9.50123 17.8792 9.50565 17.9686 9.51007C18.1995 9.52155 18.4285 9.53288 18.6539 9.54922C18.9628 9.56767 19.2692 9.61605 19.5688 9.69375C20.0189 9.81165 20.4151 10.081 20.6914 10.4569C20.7853 10.5821 20.8696 10.7143 20.9435 10.8523ZM19.051 7.45883C19.0185 7.42868 18.9854 7.39882 18.9525 7.36905C18.9314 7.34992 18.9102 7.33087 18.8893 7.31182C18.9055 7.3266 18.9216 7.34153 18.9377 7.35653C18.9757 7.3917 19.0135 7.42688 19.051 7.45883ZM18.2428 13.4379C16.1637 12.5904 13.9888 11.7038 14.3126 9.21563C15.0068 9.96015 16.0965 10.1163 17.2817 10.2862C18.3568 10.4402 19.5104 10.6055 20.5187 11.2315C22.8979 12.7075 22.5505 15.575 21.7423 16.6304C21.8152 14.894 20.0658 14.181 18.2428 13.4379ZM9.86633 12.1925C10.4151 12.1397 11.5846 11.8531 11.0617 10.9284C10.9492 10.7403 10.7861 10.5879 10.5913 10.4886C10.3964 10.3894 10.1776 10.3474 9.96008 10.3674C9.73935 10.3913 9.53115 10.4827 9.3639 10.6294C9.19665 10.7761 9.0783 10.9708 9.02505 11.1874C8.8626 11.7922 9.03472 12.2737 9.86633 12.1925ZM9.7086 4.87605C9.36435 4.4766 8.83012 4.26713 8.3064 4.19085C8.28682 4.32188 8.27445 4.45388 8.26927 4.58625C8.2458 5.67652 8.6313 6.87405 9.37725 7.70625C9.6159 7.97527 9.90368 8.1957 10.225 8.35575C10.4109 8.44665 10.904 8.67232 11.0866 8.46937C11.1005 8.45077 11.1092 8.4288 11.1119 8.4057C11.1146 8.3826 11.1112 8.3592 11.102 8.3379C11.0717 8.25098 11.0132 8.17208 10.9552 8.09377C10.914 8.03828 10.873 7.98307 10.8425 7.9254C10.8116 7.86735 10.7786 7.81065 10.7456 7.7541C10.6835 7.64775 10.6216 7.54163 10.5742 7.42613C10.4489 7.1238 10.3838 6.80235 10.3187 6.48187C10.3058 6.41782 10.2927 6.3534 10.2792 6.2895C10.1798 5.7951 10.0529 5.2755 9.7086 4.87605ZM17.0643 13.5735C16.5302 15.0707 17.3916 16.3353 18.248 17.5924C19.2058 18.9986 20.1573 20.3955 19.1421 22.0981C21.1149 21.2798 22.0516 18.8077 21.2329 16.8462C20.717 15.6055 19.4737 14.933 18.3196 14.3087C17.8718 14.0666 17.4374 13.8316 17.0643 13.5735ZM11.2914 17.1475C10.9339 17.294 10.5967 17.4864 10.2884 17.7199C10.9895 17.4644 11.7254 17.3186 12.4705 17.2871C12.6055 17.2791 12.7415 17.2728 12.8786 17.2664C13.1155 17.2555 13.3564 17.2444 13.602 17.2238C14.0047 17.1964 14.4019 17.1144 14.7827 16.9802C15.1819 16.84 15.5451 16.6126 15.8463 16.3145C16.1507 16.0068 16.3641 15.6204 16.4629 15.1982C16.5499 14.7993 16.5377 14.3851 16.4274 13.9922C16.317 13.5992 16.1119 13.2396 15.8302 12.9452C15.9661 13.2916 16.0497 13.6563 16.0783 14.0275C16.1029 14.373 16.0561 14.7199 15.9409 15.0464C15.8284 15.3558 15.6445 15.6341 15.4042 15.8582C15.1561 16.0847 14.8687 16.2635 14.5564 16.3859C14.1224 16.5616 13.6316 16.6334 13.1204 16.7083C12.8872 16.7424 12.6498 16.7772 12.4115 16.8227C12.0283 16.8932 11.6531 17.0021 11.2914 17.1475ZM17.489 23.3284L17.4548 23.3561C17.3644 23.4291 17.2726 23.5034 17.1736 23.5701C17.0476 23.6535 16.9155 23.7274 16.7785 23.7909C16.4931 23.9308 16.1795 24.0022 15.862 23.9995C15.0021 23.9834 14.3943 23.3404 14.0387 22.6137C13.9455 22.4233 13.8634 22.2269 13.7812 22.0306C13.6498 21.7163 13.5183 21.4021 13.3412 21.1117C12.9299 20.4371 12.226 19.894 11.4016 19.9946C11.0654 20.0368 10.7502 20.1886 10.5635 20.4817C10.0721 21.2473 10.7777 22.3199 11.6772 22.168C11.7537 22.1563 11.8286 22.1356 11.9003 22.1063C11.9717 22.0757 12.0384 22.035 12.0983 21.9854C12.224 21.8802 12.3186 21.7427 12.3722 21.5876C12.4313 21.4257 12.4445 21.2506 12.4103 21.0818C12.3734 20.9052 12.2695 20.7501 12.1209 20.649C12.2938 20.7303 12.4285 20.8759 12.4967 21.0549C12.5675 21.2393 12.5857 21.4396 12.5492 21.6338C12.5139 21.836 12.4252 22.025 12.2922 22.181C12.2216 22.2612 12.14 22.3309 12.0498 22.388C11.9604 22.4444 11.8646 22.49 11.7645 22.5236C11.5615 22.5933 11.3454 22.6158 11.1325 22.5894C10.8335 22.5466 10.5516 22.4237 10.3162 22.2337C10.2727 22.1993 10.231 22.1631 10.1906 22.1256C10.0305 21.9869 9.88515 21.8315 9.75698 21.6622C9.69945 21.5986 9.64103 21.5358 9.57998 21.4755C9.29183 21.1717 8.95185 20.9224 8.57618 20.7391C8.31713 20.6248 8.046 20.5404 7.76805 20.4874C7.62818 20.4582 7.4868 20.4371 7.34535 20.4193C7.32998 20.4177 7.3005 20.4125 7.26375 20.4061C7.1457 20.3855 6.95333 20.352 6.91943 20.3835C7.3566 19.9793 7.83308 19.6202 8.3418 19.3118C8.86418 19.0005 9.42502 18.7595 10.0099 18.595C10.6163 18.4235 11.2507 18.3746 11.876 18.4513C12.1979 18.4901 12.5132 18.572 12.8135 18.6948C13.1281 18.8211 13.4185 19.0013 13.6718 19.2275C13.9224 19.4646 14.125 19.7483 14.2682 20.0628C14.3976 20.3573 14.4941 20.6653 14.5559 20.981C14.5891 21.151 14.6141 21.3377 14.6399 21.5309C14.7577 22.4117 14.8939 23.4279 15.9032 23.605C15.9674 23.6175 16.0321 23.6267 16.0972 23.6327L16.2984 23.6375C16.4368 23.6276 16.5742 23.6077 16.7098 23.5782C16.9906 23.5119 17.2643 23.4181 17.5268 23.2982L17.489 23.3284ZM9.81007 21.7214C9.83422 21.7492 9.85868 21.7766 9.88342 21.8039C9.8733 21.7925 9.86325 21.7811 9.85313 21.7698C9.8388 21.7537 9.82447 21.7375 9.81007 21.7214Z" fill="black"/>
</svg>
